<?xml version="1.0" encoding="UTF-8"?>
<!DOCTYPE svg PUBLIC "-//W3C//DTD SVG 1.1//EN" "http://www.w3.org/Graphics/SVG/1.1/DTD/svg11.dtd">
<!-- Creator: CorelDRAW (Evaluation Version) -->
<svg xmlns="http://www.w3.org/2000/svg" xml:space="preserve" width="12.9921in" height="19.0157in" version="1.1" style="shape-rendering:geometricPrecision; text-rendering:geometricPrecision; image-rendering:optimizeQuality; fill-rule:evenodd; clip-rule:evenodd"
viewBox="0 0 12992.13 19015.75"
 xmlns:xlink="http://www.w3.org/1999/xlink"
 xmlns:xodm="http://www.corel.com/coreldraw/odm/2003">
 <defs>
  <style type="text/css">
   <![CDATA[
    .str3 {stroke:#7D4544;stroke-width:10.42;stroke-miterlimit:22.9256}
    .str7 {stroke:#FEFEFE;stroke-width:7.87;stroke-miterlimit:22.9256}
    .str0 {stroke:#373435;stroke-width:7.87;stroke-miterlimit:22.9256}
    .str8 {stroke:#FDD1A1;stroke-width:7.87;stroke-miterlimit:22.9256}
    .str1 {stroke:#7D4544;stroke-width:7.87;stroke-miterlimit:22.9256}
    .str5 {stroke:#373435;stroke-width:6.94;stroke-miterlimit:22.9256}
    .str4 {stroke:#373435;stroke-width:6.94;stroke-miterlimit:22.9256}
    .str2 {stroke:#373435;stroke-width:6.94;stroke-miterlimit:22.9256}
    .str6 {stroke:#373435;stroke-width:3;stroke-miterlimit:22.9256}
    .fil2 {fill:none}
    .fil8 {fill:#FEFEFE}
    .fil7 {fill:#FEFEFE}
    .fil9 {fill:#373435}
    .fil10 {fill:#FFFBD6}
    .fil1 {fill:#FDD1A1}
    .fil0 {fill:#DFF2FB}
    .fil6 {fill:#A7C4D2}
    .fil5 {fill:#00AFEF}
    .fil3 {fill:#00AFEF}
    .fil4 {fill:#7D4544}
   ]]>
  </style>
 </defs>
 <g id="Capa_x0020_1">
  <metadata id="CorelCorpID_0Corel-Layer"/>
  <g id="_1298906748768">
   <path class="fil0 str0" d="M6465.83 9996.15l-201.44 649.09c0,0 -78.37,436.49 22.37,587.58 100.74,151.09 207.09,374.9 570.79,374.9 363.7,0 649.13,-78.34 705.07,-106.32 55.94,-27.98 380.52,-811.39 380.52,-811.39 0,0 481.19,-1298.23 576.34,-1661.96 95.15,-363.73 95.15,-386.1 95.15,-386.1l-22.4 -83.92c0,0 162.26,-106.32 139.89,-318.96 -22.37,-212.65 -63.31,-358.19 -63.31,-358.19 0,0 -82.16,-425.22 -138.13,-481.19 -55.97,-55.97 89.54,-290.98 89.54,-290.98 0,0 151.12,-145.54 145.5,-218.26 -5.61,-72.72 -207.02,-279.75 -425.28,-285.36 -218.26,-5.62 -257.45,89.54 -235.05,212.64 22.4,123.11 -39.15,290.98 -39.15,290.98l-33.57 55.94 -335.75 173.49 -318.96 139.89 -1292.54 1074.42 380.42 1443.7z"/>
   <path class="fil1 str0" d="M4761.13 6160.14c0,0 -526.02,425.29 -559.59,928.91 -33.57,503.63 5.59,794.64 78.34,912.13 72.75,117.49 -151.06,-201.44 -425.25,-11.2 -274.2,190.24 -16.82,604.36 285.36,593.16 302.18,-11.2 453.27,-11.2 453.27,-11.2 0,0 251.8,470.09 598.74,604.36 346.95,134.28 346.95,134.28 346.95,134.28 0,0 710.65,187.54 1359.75,-232.17 649.1,-419.7 789.02,-671.5 856.16,-979.26 67.14,-307.76 -44.77,-235.01 151.09,-430.87 195.86,-195.86 380.55,-363.77 330.17,-598.78 -50.39,-235.01 -179.07,-201.44 -302.18,-184.66 -123.11,16.78 -162.29,44.77 -162.29,44.77 0,0 -335.75,-682.67 -839.37,-956.86 -503.62,-274.2 -1102.37,-173.49 -1102.37,-173.49 0,0 -621.15,55.97 -1068.77,360.89z"/>
   <path class="fil2 str1" d="M4014 8087.87c0,0 162.29,22.4 257.41,83.95 95.12,61.56 -61.04,-194 -223.84,61.56"/>
   <path class="fil3 str2" d="M5646.97 11715.37c0,0 -659.22,26.6 -709.57,-465.83 -50.32,-492.42 248.92,-900.96 248.92,-900.96l1384.99 -44.77 -34.45 298.15c-1.56,13.94 -58.13,-67.81 -138.94,26.46 -80.81,94.28 -120.91,102.06 -145.51,106.32l-128.69 22.37c0,0 67.13,-100.7 -240.63,-100.7 -307.73,0 -412.43,24.46 -540.44,163.48 -128.01,139.01 -196.77,354.76 -19.15,631.13 177.65,276.36 442.41,250 442.41,250l-118.94 14.35z"/>
   <path class="fil4 str3" d="M5572.52 5662.1c0,0 -251.76,-5.55 -542.78,307.8 -23.35,25.14 -45.38,51.64 -66.12,79.15 -237.82,315.18 -308.81,760.19 -308.81,760.19 0,0 313.35,-330.17 464.44,-386.1 151.09,-55.94 235.04,-195.86 235.04,-195.86 0,0 -44.8,151.12 55.94,386.13 100.74,235.01 173.49,464.44 173.49,464.44 0,0 207.06,-486.84 246.21,-671.5 39.15,-184.66 50.35,-268.58 50.35,-268.58 0,0 128.72,408.43 402.92,442.04 274.2,33.6 609.94,-106.32 609.94,-106.32 0,0 -324.58,-89.54 -386.13,-307.76 -61.55,-218.22 -498.01,-526.02 -615.53,-548.39 -117.52,-22.37 -318.96,44.77 -318.96,44.77z"/>
   <path class="fil1 str4" d="M5263.67 10941.74c-17.76,-21.11 151.74,-277.95 453.24,-285.36 301.5,-7.41 382.55,52.35 388.4,38.51 5.82,-13.84 104.16,-22.74 168.38,28.59 62.13,49.68 58.74,-142.7 176.27,-139.89 117.52,2.81 153.87,75.53 153.87,75.53 0,0 41.96,-67.1 123.1,-19.56 81.15,47.55 83.96,67.14 83.96,67.14 0,0 39.19,-89.5 89.54,-33.57 50.35,55.93 -86.73,260.15 -123.1,276.97 -36.38,16.82 27.95,120.3 -50.39,212.65 -78.33,92.35 -195.82,237.85 -195.82,237.85 0,0 148.28,179.04 41.96,293.75 -106.32,114.72 -288.21,229.46 -461.67,165.1 -173.46,-64.36 -232.24,-201.48 -232.24,-201.48 0,0 -151.06,123.14 -374.9,-36.34 -223.84,-159.48 -338.56,-428.1 -240.59,-679.89z"/>
   <path class="fil2 str5" d="M5923.5 11054.41c0,0 114.75,-330.17 184.69,-358.15"/>
   <path class="fil1 str5" d="M7971.79 11025.76c0,0 111.94,-134.31 117.52,-263 5.58,-128.69 -70.79,-199.78 -70.79,-199.78l-427.31 938.42 -132.35 41.35c0,0 149.2,115.35 356.26,14.62 207.06,-100.74 257.41,-447.66 257.41,-503.63 0,-55.97 -79.32,-56.31 -79.32,-56.31l-21.42 28.32z"/>
   <path class="fil5 str0" d="M7795.06 7606.69c0,0 835.55,96.27 873.75,274.2 38.2,177.93 65.28,408 65.28,408 0,0 -28.96,165.33 -85.41,217.24 -56.44,51.91 -98.17,-15.3 -98.17,-15.3 0,0 -83.96,-358.15 -419.7,-425.29 -335.75,-67.13 -615.53,-67.13 -615.53,-67.13l0 -246.21 279.78 -145.51z"/>
   <path class="fil6 str0" d="M7985.33 7223.36l-260.22 383.33c0,0 645.34,52.11 735.86,111.91 90.52,59.8 196.27,105.17 196.27,105.17 0,0 -115.93,-409.89 -139.31,-460.38 -23.38,-50.49 -532.59,-140.03 -532.59,-140.03z"/>
   <path class="fil1 str4" d="M5186.32 10348.58c0,0 16.78,-386.13 100.74,-649.13 83.95,-263 251.89,-388.87 251.89,-388.87 0,0 785.2,93.06 1132.39,-109.3 347.19,-202.36 404.68,-242.15 404.68,-242.15l-1.08 136 -89.5 481.22 -207.06 430.91 -207.06 296.56 -1063.22 39.19 -321.78 5.58z"/>
   <path class="fil7 str6" d="M5717.89 9016.75c-16.78,-39.15 -92.31,-380.48 153.9,-562.37 246.21,-181.88 486.87,-190.28 604.36,-162.29 117.49,27.98 310.54,201.48 338.52,260.22 27.99,58.74 36.38,145.48 109.13,201.44 72.75,55.97 93.09,242.59 93.09,242.59 0,0 -67.88,261.03 -196.61,356.15 -128.72,95.12 -268.58,237.82 -512.02,237.82 -243.44,0 -389.86,-22.94 -470.06,-134.31 -80.2,-111.36 -120.33,-439.26 -120.33,-439.26z"/>
   <path class="fil5 str6" d="M5969.72 8941.22c0,0 -145.48,-37.53 -195.86,39.15 -50.39,76.68 -26.43,217.72 -15.3,261.91 11.13,44.19 81.59,293.35 275.08,327.7 193.49,34.35 454.15,61.28 600.81,-79.49 146.66,-140.77 264.62,-228.45 318.96,-321.71 54.35,-93.26 69.2,-181.51 50.12,-248.75 -19.09,-67.24 -139.31,-240.05 -139.31,-240.05l-34.25 -88.96 -155.19 -5.14 -204.25 212.64c0,0 -95.12,-120.33 -263,-55.97 -99.56,38.17 -164.73,100.94 -201.21,145.71 -25.04,30.69 -36.61,52.96 -36.61,52.96z"/>
   <path class="fil8 str7" d="M5955.75 9070.29c0,0 0.57,212.79 226.62,217.84 226.04,5.05 402.89,-157.28 402.89,-260.18 0,-102.9 -61.56,-272.32 -61.56,-272.32l-193.05 -60.52 -190.07 37.43 -134.24 123.17 -36.61 57.27 -13.98 157.31z"/>
   <path class="fil5" d="M6084.44 8941.22c0,0 13.94,86.69 128.69,83.92 114.75,-2.78 201.44,-89.5 204.25,-145.47 2.81,-55.97 -27.98,-78.34 -123.11,-78.34 -95.12,0 -182.39,69.81 -182.39,69.81 0,0 -32.93,26.87 -27.44,70.08z"/>
   <ellipse class="fil9 str0" cx="5337.44" cy="7833.27" rx="142.7" ry="153.9"/>
   <ellipse class="fil9 str0" cx="6739.18" cy="7517.11" rx="139.89" ry="195.86"/>
   <ellipse class="fil10" cx="7158.89" cy="7612.24" rx="67.14" ry="83.92"/>
   <ellipse class="fil10" cx="7973.08" cy="6979.89" rx="75.53" ry="27.95"/>
   <ellipse class="fil10 str0" cx="5408.78" cy="7756.32" rx="71.33" ry="76.95"/>
   <ellipse class="fil10 str0" cx="6752.21" cy="7409.54" rx="82.13" ry="62.77"/>
   <path class="fil2 str0" d="M5927.8 8121.48c0,0 151.06,-419.7 458.85,-111.94"/>
   <path class="fil2 str1" d="M7791.24 7371.61c0,0 23.48,-174.54 229.43,-257.41"/>
   <path class="fil2 str1" d="M8020.66 7304.47c0,0 12.89,-110.45 -192.2,-30.05"/>
   <path class="fil1 str5" d="M5504.24 9678.44c0,0 207.06,-223.85 570.79,-274.2 363.74,-50.35 945.7,0 945.7,0 0,0 64.33,-285.33 181.85,-310.54 117.52,-25.21 111.91,41.93 83.92,100.7 -27.99,58.78 -100.7,114.71 -100.7,114.71 0,0 341.33,-148.31 447.65,-89.54 106.32,58.78 123.14,134.3 14.01,198.67 -109.13,64.36 -277,109.13 -277,109.13 0,0 349.72,-78.33 433.68,16.78 83.96,95.12 30.8,162.29 -33.57,179.08 -64.36,16.78 -360.96,30.76 -360.96,30.76 0,0 369.35,-41.96 349.76,30.8 -19.59,72.75 -276.97,131.5 -360.93,114.71 -83.95,-16.78 106.32,22.37 123.11,75.53 16.78,53.16 -58.78,131.5 -190.28,61.56 -131.5,-69.94 -223.85,-114.71 -223.85,-114.71 0,0 -44.73,79.76 -156.64,107.74 -111.91,27.98 -283.98,20.98 -283.98,20.98 0,0 -142.67,214.03 -595.94,214.03 -453.27,0 -598.74,-95.12 -598.74,-95.12l32.11 -491.07z"/>
   <rect class="fil1 str8" x="5386.07" y="9487.36" width="379.88" height="759.99" rx="133.77" ry="133.77"/>
   <path class="fil2 str5" d="M6286.46 10727.29c0,0 78.33,114.71 -53.16,139.89"/>
   <path class="fil2 str5" d="M6604.3 10657.22c0,0 16.78,153.87 -81.15,201.44"/>
   <path class="fil2 str5" d="M6809.57 10703.89c0,0 19.56,128.69 -55.97,156.67"/>
   <ellipse class="fil1 str5" cx="8245.72" cy="9770.11" rx="181.85" ry="61.55"/>
   <ellipse class="fil1 str5" cx="8248.53" cy="9631.57" rx="235.01" ry="71.33"/>
   <ellipse class="fil1 str5" cx="8276.52" cy="9466.5" rx="223.84" ry="93.73"/>
   <ellipse class="fil1 str5" cx="8280.71" cy="9273.45" rx="250.41" ry="79.72"/>
   <ellipse class="fil10" cx="5095.79" cy="8184.59" rx="67.14" ry="83.92"/>
  </g>
 </g>
</svg>
